<svg width="36" height="36" viewBox="0 0 36 36" fill="none" xmlns="http://www.w3.org/2000/svg" class="" xmlns:xlink="http://www.w3.org/1999/xlink"><path class="u_fill" d="M24.4 6.003c2.078 0 4.155-.004 6.23 0 2.016.005 3.342 1.21 3.362 3.054.01.9.012 1.8-.002 2.7-.026 1.794-1.357 3.011-3.31 3.014-4.186.006-8.37.006-12.556 0-1.953-.004-3.288-1.22-3.312-3.012-.012-.915-.012-1.829 0-2.744.025-1.79 1.359-3.006 3.31-3.012 2.094-.006 4.186 0 6.279 0ZM24.4 22.103c2.045 0 4.091-.003 6.137.001 2.145.005 3.448 1.192 3.457 3.143.004.843.006 1.686 0 2.53-.014 1.894-1.341 3.109-3.405 3.11-4.123.002-8.245.002-12.368 0-2.064-.001-3.396-1.216-3.41-3.105-.006-.858-.004-1.715 0-2.573.012-1.897 1.323-3.096 3.405-3.102 2.06-.01 4.122-.004 6.183-.004ZM13.178 9.677v1.444h-.573c-2.109 0-4.219-.002-6.327.002-1.715.002-2.676.88-2.677 2.44v9.778c.001 1.509.975 2.407 2.61 2.411.72.003 1.438-.007 2.157.004.395.005.712-.099.878-.445.175-.367.028-.665-.27-.923a4.32 4.32 0 0 1-.296-.275c-.309-.325-.324-.783-.041-1.05.317-.3.79-.3 1.17.038.706.627 1.395 1.27 2.09 1.908.343.313.694.62 1.024.943.351.345.367.744.015 1.07-1.04.969-2.09 1.928-3.148 2.88-.346.31-.821.296-1.131.008-.304-.284-.296-.71.025-1.041.104-.106.215-.208.33-.304.296-.248.406-.55.252-.89-.156-.346-.483-.46-.875-.459-.718.004-1.437.002-2.155 0-2.544-.008-4.231-1.548-4.234-3.87-.002-3.288-.003-6.577 0-9.865.004-2.222 1.669-3.793 4.1-3.821 2.25-.028 4.5-.006 6.749-.006.092 0 .183.013.327.023Z" fill="#73788B"></path></svg>