<svg width="26" height="38" viewBox="0 0 26 38" fill="none" xmlns="http://www.w3.org/2000/svg">
<g clip-path="url(#clip0_4677_74)">
<path d="M20.2964 6.87551C21.8162 6.87551 23.0483 5.59401 23.0483 4.01319C23.0483 2.43238 21.8162 1.15088 20.2964 1.15088C18.7765 1.15088 17.5444 2.43238 17.5444 4.01319C17.5444 5.59401 18.7765 6.87551 20.2964 6.87551Z" fill="#60B158"/>
<path d="M6.27393 37.0005C7.79379 37.0005 9.02588 35.719 9.02588 34.1382C9.02588 32.5574 7.79379 31.2759 6.27393 31.2759C4.75407 31.2759 3.52197 32.5574 3.52197 34.1382C3.52197 35.719 4.75407 37.0005 6.27393 37.0005Z" fill="#FF6961"/>
<path d="M12.301 4.36361C11.2876 3.27279 11.4862 1.66613 11.7127 1C6.40177 3.69845 7.59224 9.64415 9.17051 11.6842C10.7488 13.7243 18.4584 21.7993 20.6771 24.074C22.452 25.894 22.3672 27.9787 22.1034 28.7941C28.4062 24.5482 25.4939 18.7964 24.1226 17.2062C22.7522 15.617 13.5753 5.73562 12.3019 4.36555L12.301 4.36361Z" fill="#007AFF"/>
<path d="M4.46818 12.5106C3.45485 11.4198 3.65341 9.8131 3.87901 9.14697C-1.43099 11.8454 -0.240529 17.7911 1.33681 19.8312C2.91508 21.8713 10.6247 29.9463 12.8434 32.221C14.6183 34.041 14.5335 36.1256 14.2697 36.9411C20.5725 32.6951 17.6602 26.9434 16.2889 25.3532C14.9185 23.764 5.74162 13.8826 4.46818 12.5125V12.5106Z" fill="#FFA700"/>
</g>
<defs>
<clipPath id="clip0_4677_74">
<rect width="26" height="36" fill="white" transform="translate(0 1)"/>
</clipPath>
</defs>
</svg>
